<?xml version="1.0" encoding="UTF-8"?>
<svg id="Layer_1" xmlns="http://www.w3.org/2000/svg" version="1.1" viewBox="0 0 435 177">
  <!-- Generator: Adobe Illustrator 29.7.1, SVG Export Plug-In . SVG Version: 2.1.1 Build 8)  -->
  <defs>
    <style>
      .st0 {
        fill: #004567;
      }

      .st1 {
        fill: #3989c9;
      }
    </style>
  </defs>
  <path class="st1" d="M13.95,81.11V15.99h22.8c19.24,0,32.51,13.27,32.51,32.69s-13.01,32.43-31.89,32.43H13.95ZM25.35,26.5v44.09h10.96c13.01,0,20.93-8.37,20.93-21.91s-8.11-22.18-21.56-22.18h-10.33Z"/>
  <path class="st1" d="M70.42,81.11L93.94,15.99h11.67l23.52,65.12h-12.03l-5.26-15.05h-24.32l-5.26,15.05h-11.85ZM90.91,56.43h17.64l-7.48-21.02c-.53-1.69-1.16-3.65-1.34-4.99-.27,1.25-.8,3.21-1.43,4.99l-7.39,21.02Z"/>
  <path class="st1" d="M137.32,81.11V15.99h11.31l30.55,46.14V15.99h11.22v65.12h-11.22l-30.64-46.14v46.14h-11.22Z"/>
  <path class="st1" d="M216.25,81.11h-11.4V15.99h11.4v65.12Z"/>
  <path class="st1" d="M230.68,81.11V15.99h40.44v10.51h-29.04v16.75h26.01v10.07h-26.01v17.28h29.04v10.51h-40.44Z"/>
  <path class="st1" d="M294.91,70.59h27.26v10.51h-38.66V15.99h11.4v54.61Z"/>
  <path class="st0" d="M13.95,157.26v-65.12h11.31l30.55,46.14v-46.14h11.22v65.12h-11.22l-30.64-46.14v46.14h-11.22Z"/>
  <path class="st0" d="M75.23,157.26l23.52-65.12h11.67l23.52,65.12h-12.03l-5.26-15.05h-24.32l-5.26,15.05h-11.85ZM95.72,132.58h17.64l-7.48-21.02c-.53-1.69-1.16-3.65-1.34-4.99-.27,1.25-.8,3.21-1.43,4.99l-7.39,21.02Z"/>
  <path class="st0" d="M126.37,92.14h12.12l14.25,37.5c1.43,3.92,2.67,7.75,4.1,13.01,1.6-5.7,2.94-9.71,4.19-13.01l14.07-37.5h11.85l-24.23,65.12h-11.76l-24.59-65.12Z"/>
  <path class="st0" d="M179.37,157.26l23.52-65.12h11.67l23.52,65.12h-12.03l-5.26-15.05h-24.32l-5.26,15.05h-11.85ZM199.86,132.58h17.64l-7.48-21.02c-.53-1.69-1.16-3.65-1.34-4.99-.27,1.25-.8,3.21-1.43,4.99l-7.39,21.02Z"/>
  <path class="st0" d="M246.27,157.26v-65.12h24.85c14.79,0,23.43,7.48,23.43,20.31,0,8.73-4.1,14.97-11.76,18.08l12.38,26.72h-12.47l-11.05-24.32h-13.99v24.32h-11.4ZM257.68,122.87h13.45c7.21,0,11.49-3.83,11.49-10.42s-4.28-10.16-11.49-10.16h-13.45v20.58Z"/>
  <path class="st0" d="M305.96,157.26v-65.12h24.85c14.79,0,23.43,7.48,23.43,20.31,0,8.73-4.1,14.97-11.76,18.08l12.38,26.72h-12.47l-11.05-24.32h-13.99v24.32h-11.4ZM317.36,122.87h13.45c7.21,0,11.49-3.83,11.49-10.42s-4.28-10.16-11.49-10.16h-13.45v20.58Z"/>
  <path class="st0" d="M393.17,158.33c-18.62,0-31.45-13.81-31.45-33.67s12.92-33.67,31.53-33.67,31.62,13.81,31.62,33.67-13.01,33.67-31.71,33.67ZM393.26,101.94c-11.94,0-19.6,8.82-19.6,22.72s7.66,22.72,19.6,22.72,19.6-9,19.6-22.72-7.66-22.72-19.6-22.72Z"/>
</svg>